Coordinates
version=1
nRows=35
nColumns=38
inDegrees=no

Units are S.I. units (second, meters, Newtons, ...)
If the header above contains a line with 'inDegrees', this indicates whether rotational values are in degrees (yes) or radians (no).

endheader
time	pelvis_tilt	pelvis_list	pelvis_rotation	pelvis_tx	pelvis_ty	pelvis_tz	hip_flexion_r	hip_adduction_r	hip_rotation_r	knee_angle_r	ankle_angle_r	subtalar_angle_r	mtp_angle_r	hip_flexion_l	hip_adduction_l	hip_rotation_l	knee_angle_l	ankle_angle_l	subtalar_angle_l	mtp_angle_l	lumbar_extension	lumbar_bending	lumbar_rotation	arm_flex_r	arm_add_r	arm_rot_r	elbow_flex_r	pro_sup_r	wrist_flex_r	wrist_dev_r	arm_flex_l	arm_add_l	arm_rot_l	elbow_flex_l	pro_sup_l	wrist_flex_l	wrist_dev_l
1.38	3.07421	1.31119	-1.51194	0.864728	1.19566	0.978622	0.0434812	0.0334854	-0.0898668	0.567956	0.140842	0	0	0.165657	-0.0895808	-0.124283	0.863709	0.296132	0	0	-0.55553	0.0919629	0.0560276	0.481987	-0.451882	0.196557	1.12706	0.831861	0	0	0.453562	-0.425035	0.261452	1.06627	0.67788	0	0
1.39	3.09566	1.3082	-1.53325	0.864548	1.20626	0.979599	0.0266501	0.0286661	-0.0852437	0.567005	0.151141	0	0	0.174705	-0.0876401	-0.134189	0.823981	0.299956	0	0	-0.555946	0.0861973	0.0524071	0.482486	-0.448922	0.19509	1.12703	0.831912	0	0	0.453174	-0.425147	0.258916	1.06441	0.67818	0	0
1.4	3.1163	1.30486	-1.55385	0.86438	1.21675	0.980506	0.0095396	0.0237172	-0.0817019	0.565824	0.160867	0	0	0.182658	-0.085447	-0.144218	0.782905	0.302309	0	0	-0.556699	0.0800429	0.048605	0.483516	-0.444957	0.193188	1.12519	0.832496	0	0	0.453194	-0.425678	0.256512	1.06265	0.67869	0	0
1.41	3.13591	1.30027	-1.57479	0.864239	1.22713	0.981466	-0.00888451	0.0183101	-0.0783564	0.564189	0.170208	0	0	0.187801	-0.0827548	-0.155184	0.739592	0.301867	0	0	-0.558922	0.0731533	0.045818	0.485454	-0.44063	0.191315	1.12161	0.83426	0	0	0.453859	-0.426384	0.254474	1.06094	0.678824	0	0
1.42	-3.13507	1.29629	-1.58914	0.863991	1.23751	0.982267	-0.0268024	0.0140702	-0.0763941	0.561681	0.178889	0	0	0.193261	-0.0813774	-0.164896	0.696871	0.301201	0	0	-0.560332	0.0678713	0.0447887	0.487556	-0.437742	0.190478	1.11756	0.837362	0	0	0.455181	-0.426613	0.254582	1.05822	0.678758	0	0
1.43	-3.12856	1.29234	-1.59884	0.86373	1.24794	0.983012	-0.0450648	0.0105039	-0.0758454	0.558262	0.187373	0	0	0.197907	-0.0812309	-0.174419	0.653814	0.299629	0	0	-0.561483	0.0635922	0.0456262	0.489466	-0.435828	0.190214	1.11315	0.840937	0	0	0.457131	-0.426338	0.256349	1.05449	0.67858	0	0
1.44	-3.12643	1.28864	-1.60509	0.863437	1.25844	0.98367	-0.0636363	0.0073805	-0.0760692	0.553735	0.195898	0	0	0.201716	-0.0820129	-0.183977	0.61	0.297376	0	0	-0.56222	0.0601382	0.0481148	0.490929	-0.435024	0.191318	1.10893	0.841512	0	0	0.459255	-0.425488	0.259209	1.05015	0.679029	0	0
1.45	-3.12695	1.28536	-1.60938	0.863089	1.26903	0.984191	-0.0824172	0.00441341	-0.076666	0.548099	0.204717	0	0	0.204652	-0.082887	-0.19291	0.565197	0.294496	0	0	-0.562374	0.057132	0.0516101	0.491827	-0.434656	0.192629	1.10475	0.839244	0	0	0.461182	-0.424119	0.26203	1.04571	0.679744	0	0
1.46	-3.12862	1.28273	-1.6127	0.862693	1.27975	0.984502	-0.101287	0.00151903	-0.0777928	0.54129	0.213936	0	0	0.207044	-0.0834265	-0.200605	0.519247	0.290742	0	0	-0.561624	0.0543445	0.0551929	0.492341	-0.434593	0.193868	1.10027	0.837953	0	0	0.462224	-0.422577	0.263677	1.04178	0.680098	0	0
1.47	-3.13051	1.28067	-1.61599	0.862272	1.29061	0.984554	-0.120385	-0.00127763	-0.0789891	0.533191	0.223706	0	0	0.2089	-0.083583	-0.207594	0.472686	0.286439	0	0	-0.560081	0.051519	0.0586532	0.492428	-0.43478	0.194938	1.096	0.838771	0	0	0.462067	-0.421488	0.26445	1.03948	0.680863	0	0
1.48	-3.132	1.27896	-1.62008	0.861844	1.30159	0.98433	-0.139862	-0.00393898	-0.0795332	0.523799	0.233894	0	0	0.209882	-0.0831885	-0.213927	0.425422	0.281427	0	0	-0.558036	0.0483748	0.0624232	0.491478	-0.435553	0.19636	1.09352	0.838487	0	0	0.461211	-0.420937	0.26507	1.03863	0.681974	0	0
1.49	-3.13399	1.27759	-1.62401	0.86139	1.31269	0.983827	-0.159442	-0.00625833	-0.079302	0.513572	0.244293	0	0	0.210004	-0.0824871	-0.218783	0.37758	0.275494	0	0	-0.555605	0.0452659	0.0666745	0.489298	-0.436732	0.197761	1.09317	0.835241	0	0	0.459755	-0.420676	0.265367	1.03921	0.683518	0	0
1.5	-3.13722	1.27635	-1.6265	0.860783	1.32388	0.983112	-0.17927	-0.00826815	-0.0790541	0.502783	0.254714	0	0	0.208789	-0.0814768	-0.22125	0.328586	0.267879	0	0	-0.553193	0.0428715	0.0710904	0.486137	-0.438437	0.198092	1.09462	0.830697	0	0	0.457751	-0.420256	0.264996	1.0409	0.685246	0	0
1.51	3.13887	1.27536	-1.62476	0.859996	1.33517	0.98222	-0.199203	-0.00923268	-0.0791435	0.491603	0.264532	0	0	0.20641	-0.0810543	-0.221063	0.278711	0.259061	0	0	-0.550777	0.0421226	0.0755501	0.482684	-0.441123	0.198593	1.09726	0.826753	0	0	0.454899	-0.419553	0.263751	1.04362	0.686271	0	0
1.52	3.12609	1.27471	-1.61695	0.859083	1.34657	0.981178	-0.218905	-0.00862477	-0.0797115	0.480571	0.273636	0	0	0.202963	-0.0819122	-0.217285	0.228071	0.249122	0	0	-0.548195	0.0434304	0.0798933	0.479171	-0.443709	0.198784	1.10024	0.823868	0	0	0.450992	-0.418854	0.261542	1.04751	0.687449	0	0
1.53	3.10653	1.27483	-1.60169	0.858039	1.3581	0.97997	-0.237864	-0.00609234	-0.0809403	0.469732	0.281844	0	0	0.199415	-0.084751	-0.209629	0.177862	0.238886	0	0	-0.544835	0.0472668	0.0840355	0.475332	-0.446074	0.198368	1.10332	0.822392	0	0	0.446174	-0.417764	0.25796	1.05195	0.688851	0	0
1.54	3.08183	1.2751	-1.58041	0.856881	1.36978	0.978651	-0.257134	-0.00200788	-0.0827815	0.457928	0.289044	0	0	0.195423	-0.089131	-0.198341	0.129186	0.22959	0	0	-0.541239	0.0530836	0.0878753	0.470795	-0.44802	0.196443	1.10664	0.822773	0	0	0.441089	-0.416449	0.254096	1.05656	0.690308	0	0
1.55	3.0542	1.27564	-1.55537	0.855613	1.38156	0.977186	-0.276287	0.00302756	-0.0851744	0.445726	0.295433	0	0	0.19196	-0.0947855	-0.186402	0.0838628	0.221395	0	0	-0.537335	0.0600966	0.091639	0.465131	-0.449942	0.192671	1.11143	0.822838	0	0	0.436491	-0.415225	0.251283	1.06113	0.691418	0	0
1.56	3.02533	1.2758	-1.52836	0.854235	1.39343	0.975624	-0.295916	0.0084428	-0.0879469	0.433162	0.300901	0	0	0.187688	-0.100892	-0.17388	0.0408214	0.21288	0	0	-0.533774	0.0676618	0.0954321	0.458364	-0.451439	0.185972	1.11732	0.823056	0	0	0.433172	-0.414274	0.250607	1.06507	0.692256	0	0
1.57	2.99633	1.27543	-1.50101	0.852845	1.40541	0.973961	-0.316035	0.0139924	-0.0908318	0.420446	0.306068	0	0	0.182747	-0.107429	-0.161939	0.00118844	0.204105	0	0	-0.530572	0.0751734	0.0994797	0.451426	-0.452694	0.178238	1.12326	0.823652	0	0	0.431268	-0.413704	0.252138	1.06793	0.693019	0	0
1.58	2.97146	1.27353	-1.47567	0.851521	1.417	0.972225	-0.336772	0.0202587	-0.0929288	0.40919	0.310211	0	0	0.19047	-0.116123	-0.161255	0	0.20652	0	0	-0.529512	0.0816536	0.101669	0.446751	-0.453649	0.172994	1.12737	0.82406	0	0	0.431341	-0.413618	0.254094	1.07018	0.693262	0	0
1.59	2.94935	1.27069	-1.4536	0.850142	1.42868	0.97053	-0.358314	0.0253143	-0.0945056	0.398058	0.313342	0	0	0.195689	-0.123447	-0.161218	0	0.20987	0	0	-0.529575	0.08727	0.102834	0.444279	-0.453789	0.169621	1.13007	0.824572	0	0	0.431455	-0.413899	0.255059	1.0722	0.692618	0	0
1.6	2.9305	1.26791	-1.43543	0.848771	1.44044	0.968812	-0.378535	0.0289233	-0.0950805	0.389532	0.316245	0	0	0.198672	-0.129381	-0.163407	0	0.213535	0	0	-0.529575	0.0916523	0.102554	0.444674	-0.452783	0.16938	1.12996	0.824915	0	0	0.430627	-0.414186	0.253076	1.07405	0.692451	0	0
1.61	2.91454	1.26506	-1.42101	0.847326	1.45231	0.967093	-0.397308	0.0309043	-0.0939642	0.384098	0.318656	0	0	0.199029	-0.13399	-0.167913	0	0.217106	0	0	-0.529777	0.0949998	0.101891	0.447027	-0.451129	0.170571	1.12823	0.824502	0	0	0.429544	-0.413709	0.248898	1.075	0.693199	0	0
1.62	2.90072	1.26285	-1.4104	0.845822	1.46435	0.965309	-0.413279	0.0309199	-0.0909045	0.383069	0.321315	0	0	0.19726	-0.137574	-0.174728	0	0.219848	0	0	-0.529374	0.0970701	0.102394	0.450227	-0.449206	0.171927	1.12551	0.825387	0	0	0.428861	-0.412072	0.24386	1.07437	0.693942	0	0
1.63	2.88834	1.26169	-1.40294	0.844301	1.47654	0.963423	-0.425565	0.028851	-0.0854759	0.387617	0.325085	0	0	0.193693	-0.140325	-0.183076	0	0.222147	0	0	-0.527928	0.0979203	0.104944	0.452889	-0.44745	0.171718	1.12266	0.82911	0	0	0.429445	-0.409424	0.240029	1.07195	0.694799	0	0
1.64	2.87733	1.26201	-1.3986	0.842777	1.48897	0.961388	-0.433971	0.0247918	-0.0775245	0.39717	0.329837	0	0	0.188643	-0.142116	-0.191832	0	0.223581	0	0	-0.524854	0.0974285	0.109501	0.454824	-0.447233	0.171977	1.12	0.832777	0	0	0.431232	-0.406163	0.237977	1.06775	0.697049	0	0
1.65	2.86761	1.26372	-1.39704	0.8413	1.50165	0.95922	-0.438699	0.0191017	-0.0674588	0.411592	0.334624	0	0	0.181946	-0.142793	-0.199484	0	0.224415	0	0	-0.520339	0.0955638	0.115272	0.455149	-0.447124	0.171252	1.11811	0.83435	0	0	0.433464	-0.402988	0.237347	1.06236	0.701482	0	0
1.66	2.85887	1.26625	-1.3978	0.839854	1.51456	0.956982	-0.440574	0.0121378	-0.0555138	0.430157	0.338941	0	0	0.173105	-0.142575	-0.205048	0	0.225035	0	0	-0.515156	0.0926804	0.121683	0.454809	-0.446439	0.169571	1.11692	0.836006	0	0	0.435143	-0.399979	0.236066	1.05708	0.706165	0	0
1.67	2.85116	1.26913	-1.40052	0.838388	1.52773	0.954693	-0.440441	0.00411436	-0.0427466	0.452232	0.342473	0	0	0.161707	-0.141314	-0.207712	0	0.225842	0	0	-0.509625	0.0892495	0.127963	0.455551	-0.446353	0.170889	1.11544	0.836526	0	0	0.435277	-0.397624	0.233711	1.05343	0.709075	0	0
1.68	2.83956	1.27399	-1.40121	0.836825	1.54158	0.952219	-0.437165	-0.00550008	-0.0312928	0.476467	0.345146	0	0	0.142128	-0.137319	-0.20411	0	0.223938	0	0	-0.500754	0.0867978	0.134207	0.456444	-0.446056	0.174162	1.11289	0.835347	0	0	0.432331	-0.39616	0.230465	1.05077	0.711875	0	0
1.69	2.83234	1.277	-1.40374	0.835239	1.5552	0.949685	-0.434272	-0.0137443	-0.0196664	0.504115	0.345249	0	0	0.136694	-0.136397	-0.20306	0.0117692	0.227647	0	0	-0.493993	0.0835381	0.138952	0.457114	-0.445468	0.176986	1.11006	0.834649	0	0	0.429755	-0.39522	0.227548	1.04956	0.71515	0	0
1.7	2.82176	1.28106	-1.4025	0.833468	1.56927	0.946861	-0.428881	-0.0217356	-0.00983492	0.534656	0.344194	0	0	0.133843	-0.136175	-0.206414	0.051195	0.239782	0	0	-0.484964	0.0817115	0.143323	0.456265	-0.445175	0.179272	1.10867	0.834271	0	0	0.425492	-0.394382	0.224138	1.04929	0.716647	0	0
1.71	2.81549	1.28458	-1.4057	0.831508	1.58368	0.94398	-0.422586	-0.0321607	-0.00246233	0.568615	0.34143	0	0	0.125701	-0.132749	-0.206053	0.0771253	0.254032	0	0	-0.476115	0.0789902	0.147505	0.454157	-0.444729	0.179595	1.10843	0.834497	0	0	0.420736	-0.393864	0.221387	1.0497	0.717319	0	0
1.72	2.82198	1.28629	-1.42106	0.829353	1.59788	0.94139	-0.416065	-0.0467226	0.00250702	0.606675	0.334263	0	0	0.110236	-0.123062	-0.198405	0.0754358	0.254632	0	0	-0.470727	0.0728302	0.150511	0.45243	-0.443064	0.176896	1.10808	0.83544	0	0	0.417797	-0.39416	0.220179	1.05058	0.71855	0	0
